<svg xmlns="http://www.w3.org/2000/svg" xmlns:inkscape="http://www.inkscape.org/namespaces/inkscape" width="1050" height="700" viewBox="0 0 1050 700">
<rect width="1050" height="700" fill="white"/>
<g inkscape:groupmode="layer" inkscape:label="1-heavy" fill="none" stroke="black" stroke-width="1.6" stroke-linecap="round" stroke-linejoin="round">
<path d="M307.3,100.8 L309.0,103.2 L311.6,104.6 L320.1,107.4 L334.7,110.6 L378.1,121.5 L421.4,132.9 L430.2,133.7 L433.1,133.3 L438.5,130.8 L455.8,119.0 L485.0,98.3 L503.5,88.5 L522.4,79.6"/>
<path d="M522.5,80.4 L511.7,85.4 L485.2,99.3 L462.9,114.4 L438.6,131.7 L433.3,134.3 L430.4,134.8 L421.5,134.1 L378.4,121.9 L320.1,108.4 L311.6,105.5 L309.1,104.1 L307.3,101.6"/>
<path d="M341.8,119.2 L398.1,134.1 L420.8,139.7 L423.8,139.7 L429.6,138.5"/>
<path d="M429.4,139.1 L423.7,139.9 L420.9,139.8 L349.9,122.8 L341.6,120.1"/>
<path d="M320.8,150.7 L328.5,155.1 L381.5,181.9"/>
<path d="M381.1,182.7 L368.2,175.2 L351.7,168.4 L333.8,157.9 L320.4,151.5"/>
<path d="M321.5,151.9 L324.6,156.8 L329.2,160.5 L355.1,174.1 L376.1,184.1 L379.0,184.8"/>
<path d="M378.6,185.6 L375.7,184.9 L354.7,174.8 L336.8,165.0 L328.9,161.2 L324.2,157.6 L321.0,152.7"/>
<path d="M279.0,166.6 L277.9,172.5 L277.8,175.4 L278.5,181.3 L278.5,187.4 L273.2,204.8 L265.7,217.7 L261.5,228.9 L255.6,239.4 L250.3,253.4 L244.8,264.1 L240.3,275.2 L234.7,285.4 L233.7,291.1 L233.2,300.0 L229.7,326.7 L229.2,338.7 L226.1,353.4"/>
<path d="M228.4,338.5 L228.9,326.6 L232.6,299.9 L233.1,291.0 L234.1,285.1 L239.5,274.5 L244.0,263.4 L249.5,252.8 L255.2,239.0 L261.1,228.6 L265.1,217.3 L272.2,204.2 L277.5,187.1 L277.7,181.2 L277.2,172.3 L278.4,166.4"/>
<path d="M402.3,258.0 L401.0,252.2 L401.0,249.2 L402.9,240.4 L402.5,231.5 L403.6,222.7 L403.7,201.8 L406.1,187.2 L407.4,184.5 L414.1,178.6 L462.4,149.1 L493.2,131.1 L498.0,127.5 L503.0,120.1"/>
<path d="M503.6,120.6 L498.6,128.1 L493.9,131.8 L457.7,153.0 L414.2,179.3 L407.9,185.1 L406.7,187.6 L404.1,202.0 L403.8,222.9 L402.8,231.9 L403.3,240.8 L401.5,249.7 L401.6,252.6 L403.0,258.4"/>
<path d="M381.0,331.6 L381.2,343.5 L380.9,352.4 L378.7,376.0 L378.5,384.9 L379.4,402.7 L379.7,417.6 L376.4,450.1 L377.4,465.0"/>
<path d="M376.7,465.0 L376.1,450.1 L378.6,417.6 L377.6,384.9 L378.0,376.0 L380.3,352.4 L380.6,343.5 L380.2,331.6"/>
<path d="M389.6,339.4 L387.2,341.2 L384.9,346.7 L384.7,349.7 L385.4,367.5 L384.3,376.4 L384.0,388.3 L384.5,412.0 L384.0,421.0 L384.2,438.8 L383.1,465.6 L383.5,504.2 L382.0,533.9 L381.3,542.8 L381.7,560.7 L381.2,578.5 L379.9,599.3 L379.2,602.2 L377.5,604.6"/>
<path d="M378.5,604.7 L380.1,602.3 L380.8,599.5 L381.0,587.6 L382.4,560.7 L382.5,543.0 L383.3,534.0 L384.1,495.2 L384.2,465.4 L384.9,438.6 L384.7,420.8 L385.2,411.9 L384.8,388.0 L385.1,376.1 L386.2,367.2 L385.6,349.3 L385.8,346.5 L388.1,341.1 L390.5,339.5 L396.0,337.3"/>
<path d="M407.7,335.4 L407.8,344.2 L406.7,382.4 L407.8,423.5 L407.7,432.4"/>
<path d="M408.5,432.4 L408.6,423.5 L407.8,403.0 L408.6,335.4"/>
<path d="M406.4,426.7 L442.1,430.2 L481.0,430.7 L507.8,433.2 L540.7,435.0 L564.5,436.8 L603.4,438.3 L636.2,440.3 L663.1,441.1 L701.9,444.6 L743.8,444.4 L770.6,446.7 L791.5,447.9 L839.4,449.3"/>
<path d="M839.3,449.9 L824.4,449.3 L791.5,448.9 L746.7,445.8 L701.9,444.7 L657.1,441.9 L615.2,440.3 L570.5,437.2 L525.7,435.6 L480.9,431.8 L442.1,430.3 L406.3,427.7"/>
<path d="M407.3,433.4 L428.1,434.6 L472.8,435.5 L529.1,439.9 L582.7,441.0 L636.0,445.8 L671.7,447.0"/>
<path d="M671.7,447.7 L636.0,446.5 L582.6,442.2 L529.1,440.7 L499.5,438.0 L472.7,436.4 L428.1,435.5 L407.3,434.3"/>
<path d="M368.7,428.9 L312.7,437.9 L247.3,445.5 L215.0,451.2 L150.0,461.1 L93.6,468.0 L52.3,474.8"/>
<path d="M52.2,474.1 L93.4,467.1 L149.9,460.4 L167.6,458.0 L238.3,446.0 L312.5,437.0 L368.6,428.1"/>
<path d="M376.8,480.1 L375.0,553.7 L375.2,589.0 L373.4,609.6"/>
<path d="M374.3,609.6 L375.9,589.0 L375.5,553.7 L377.3,515.4 L377.6,480.1"/>
<path d="M352.3,601.6 L353.7,610.1 L352.9,615.9 L354.3,633.4 L354.5,642.2 L355.5,647.9 L358.8,652.5 L361.5,660.8 L362.1,672.4"/>
<path d="M361.3,672.5 L360.7,660.9 L357.8,652.7 L354.2,648.1 L353.1,642.2 L352.5,616.1 L353.5,610.3 L351.7,601.7"/>
<path d="M370.6,670.9 L403.4,669.9 L460.0,667.2"/>
<path d="M460.0,668.0 L415.3,669.8 L379.6,671.8 L370.7,671.9"/>
<path d="M268.4,628.2 L248.4,621.8 L225.9,613.7 L191.7,602.4 L112.3,574.9 L83.8,565.6 L55.7,555.1 L32.9,547.7"/>
<path d="M33.1,546.9 L56.0,554.1 L83.9,565.2 L112.7,573.8 L140.8,584.3 L169.3,593.6 L197.6,603.7 L226.1,612.9 L248.7,621.1 L268.7,627.5"/>
<path d="M147.7,634.6 L147.8,640.5 L146.2,652.0 L146.2,663.7 L145.5,678.3"/>
<path d="M144.6,678.2 L145.4,669.5 L145.1,654.9 L146.9,643.3 L146.8,634.6"/>
<path d="M69.6,632.0 L67.4,661.5 L67.3,679.3 L66.8,685.2"/>
<path d="M65.9,685.2 L67.5,649.7 L68.8,631.9"/>
<path d="M506.0,650.6 L507.9,652.9 L509.3,655.5 L509.8,658.5 L508.7,673.3 L509.5,685.2 L508.8,688.2 L506.8,690.5"/>
<path d="M507.6,690.5 L509.2,688.0 L510.0,685.1 L509.8,673.3 L510.4,658.5 L510.1,655.5 L508.7,652.9 L506.8,650.6"/>
<path d="M530.4,648.2 L539.1,646.8 L553.6,645.3 L585.3,640.2 L602.5,636.9 L616.7,633.4 L622.0,631.0 L624.2,629.1"/>
<path d="M624.4,630.0 L622.3,631.9 L616.9,634.4 L602.6,637.6 L553.7,646.3 L539.2,647.7 L530.6,649.0"/>
<path d="M520.5,588.4 L522.1,585.9 L523.2,583.1 L524.6,571.2 L524.9,556.3 L524.3,526.6 L525.0,523.7 L526.5,521.2"/>
<path d="M525.6,521.1 L524.0,523.6 L523.2,526.6 L524.6,553.4 L522.5,583.1 L521.5,585.9 L519.8,588.4"/>
<path d="M588.3,517.1 L588.4,511.1 L587.4,502.3 L586.8,493.4 L587.4,481.5 L586.7,463.8"/>
<path d="M587.6,463.8 L588.4,469.7 L587.5,493.4 L589.0,511.1 L589.0,517.0"/>
<path d="M686.0,448.5 L724.8,452.5 L742.8,453.7 L799.7,454.1 L838.6,456.5"/>
<path d="M838.7,455.7 L805.7,454.0 L742.8,452.4 L724.9,451.3 L686.1,447.8"/>
<path d="M739.1,469.4 L737.5,471.7 L736.5,474.4 L736.2,477.2 L736.9,482.8 L736.7,502.7 L738.3,508.2 L742.0,512.4"/>
<path d="M742.8,512.4 L739.1,508.1 L737.9,502.6 L737.0,477.2 L738.5,471.8 L740.0,469.5"/>
<path d="M828.0,447.7 L826.2,430.2 L825.2,409.7 L822.7,389.3 L820.9,365.9"/>
<path d="M821.6,365.9 L823.3,380.4 L824.7,400.9 L828.8,447.7"/>
<path d="M852.3,432.6 L866.9,431.3 L913.4,425.9 L927.8,423.8 L953.8,419.3 L968.3,417.9"/>
<path d="M968.2,417.1 L953.3,418.5 L926.7,423.3 L914.8,425.1 L888.0,427.7 L864.2,430.8 L852.2,431.9"/>
<path d="M851.0,427.7 L862.8,426.2 L886.4,422.3 L919.2,418.5 L963.5,411.3"/>
<path d="M963.4,410.6 L948.6,413.3 L919.0,417.5 L886.3,421.4 L862.7,425.6 L850.9,427.0"/>
<path d="M866.8,414.7 L865.7,409.0 L862.1,362.7 L861.0,354.0"/>
<path d="M861.7,354.0 L862.5,365.6 L864.5,382.9 L865.6,400.3 L867.8,414.6"/>
<path d="M913.5,407.8 L911.7,396.0 L911.3,384.2 L909.7,369.4 L909.4,354.6 L908.6,348.7"/>
<path d="M909.5,348.6 L910.6,354.5 L910.2,372.4 L914.0,401.7 L914.4,407.7"/>
<path d="M980.0,385.7 L979.8,377.0 L977.1,350.9 L975.7,327.7 L974.4,316.1 L972.9,307.5 L972.1,298.8"/>
<path d="M973.0,298.7 L975.5,316.0 L976.6,336.4 L979.3,359.5 L980.7,385.6"/>
<path d="M862.9,472.6 L862.7,481.4 L863.5,504.8 L864.6,510.4 L865.7,513.0 L867.4,515.4"/>
<path d="M866.6,515.6 L864.8,513.2 L863.6,510.5 L862.6,504.7 L861.9,481.4 L862.1,472.7"/>
<path d="M841.9,492.6 L842.2,498.4 L844.5,515.6 L844.6,544.6 L845.0,550.3 L846.6,561.7 L849.3,566.7 L851.4,568.5 L854.0,569.6"/>
<path d="M853.3,569.6 L850.6,568.3 L848.5,566.3 L845.7,561.2 L844.1,552.3 L843.2,543.4 L843.8,516.5 L841.1,492.7"/>
<path d="M866.8,586.2 L852.4,588.8 L837.9,590.3 L829.3,592.2 L820.9,594.6 L812.1,595.5"/>
<path d="M812.2,596.2 L821.0,595.2 L840.9,590.8 L867.0,587.1"/>
<path d="M925.7,585.0 L926.9,593.7 L927.7,605.3 L928.7,611.0 L929.3,619.8 L930.2,625.6"/>
<path d="M931.0,625.5 L930.2,616.8 L928.2,605.3 L928.4,596.5 L928.0,593.6 L926.5,587.9 L926.3,585.0"/>
<path d="M952.0,596.9 L954.5,613.9 L959.1,656.8"/>
<path d="M959.8,656.7 L958.9,645.2 L957.1,631.0 L955.7,613.8 L953.4,602.5 L952.7,596.8"/>
<path d="M925.8,621.2 L893.1,622.7 L839.8,626.6 L810.1,627.5 L795.3,628.9"/>
<path d="M795.3,629.6 L807.1,628.5 L839.8,627.6 L878.3,624.3 L925.8,622.0"/>
<path d="M770.8,613.0 L753.2,616.1 L735.3,617.2 L720.7,620.0 L708.8,620.9"/>
<path d="M708.7,620.0 L720.5,619.1 L735.2,616.2 L753.2,615.7 L770.7,612.2"/>
<path d="M710.6,623.3 L684.6,628.7 L670.0,630.8 L664.2,632.0"/>
<path d="M664.1,631.4 L710.4,622.6"/>
<path d="M830.2,352.7 L828.4,344.0 L826.6,308.5 L825.3,299.7 L820.9,288.7 L814.4,278.8 L810.1,271.0 L789.5,242.1 L779.9,227.1 L775.4,219.4 L774.0,213.7 L774.5,201.8 L774.3,198.9 L773.2,193.1 L770.4,187.8"/>
<path d="M771.2,187.6 L773.9,192.8 L775.1,198.7 L775.3,201.7 L774.8,213.5 L776.2,219.0 L780.5,226.6 L790.1,241.6 L805.2,263.4 L810.6,270.5 L814.9,278.4 L821.4,288.3 L826.0,299.4 L827.4,308.3 L829.4,343.7 L831.0,352.4"/>
<path d="M831.8,281.5 L854.6,274.2 L882.2,262.4 L913.5,251.9 L943.9,239.0 L963.8,232.5 L966.8,232.3 L981.6,233.9"/>
<path d="M981.4,233.1 L966.6,231.3 L963.6,231.6 L943.8,238.5 L913.2,250.9 L882.1,262.0 L854.3,273.1 L831.6,280.8"/>
<path d="M902.7,240.7 L922.0,233.8 L938.0,226.7 L948.8,222.3 L968.3,216.3 L971.2,216.3 L982.8,218.4 L985.2,220.2 L986.8,222.7"/>
<path d="M986.5,222.0 L984.8,219.7 L982.5,218.0 L971.2,215.5 L968.3,215.3 L965.5,215.8 L948.8,221.4 L924.5,231.6 L902.6,240.0"/>
<path d="M668.8,329.1 L667.7,323.3 L666.4,305.6 L665.9,270.1 L664.8,264.3 L663.9,255.5 L662.3,249.8 L654.0,237.6 L643.5,223.3 L621.3,195.6 L593.0,157.7 L590.7,152.3"/>
<path d="M589.9,152.6 L592.3,158.1 L603.2,172.2 L620.7,196.2 L643.1,224.0 L653.7,238.3 L661.7,250.2 L663.2,255.6 L663.9,264.3 L665.0,270.2 L665.7,305.8 L667.1,323.6 L668.1,329.4"/>
<path d="M662.8,327.4 L660.9,315.6 L660.4,306.6 L659.1,297.7 L658.9,282.7 L659.2,264.8 L657.9,253.1 L656.6,250.6 L649.5,241.0 L634.3,222.6 L616.1,198.7 L597.4,175.3 L585.0,158.2 L584.0,155.3 L583.6,152.2 L583.6,146.2 L584.9,137.3 L585.1,128.3 L583.2,122.5"/>
<path d="M582.6,122.8 L584.5,128.5 L584.5,137.5 L583.0,146.4 L582.8,152.4 L583.1,155.4 L584.0,158.3 L596.2,175.4 L615.4,198.4 L633.0,222.6 L655.7,250.5 L657.3,253.1 L658.7,265.1 L658.2,283.0 L658.2,298.0 L659.6,306.9 L660.1,315.9"/>
<path d="M626.4,183.4 L620.0,177.3 L609.7,163.1 L599.9,152.0 L594.7,145.0 L590.3,141.1 L587.6,140.0"/>
<path d="M588.2,139.5 L590.9,140.6 L595.2,144.6 L600.4,151.7 L610.3,162.5 L620.9,176.6 L627.1,182.8"/>
<path d="M605.4,134.0 L604.5,131.3 L601.3,126.5 L592.3,115.1 L576.9,93.9 L564.3,77.9 L561.8,72.7 L558.2,61.6 L556.8,59.1"/>
<path d="M557.5,58.7 L559.0,61.3 L562.6,72.8 L565.2,78.2 L578.5,94.4 L583.9,101.6 L594.2,116.4 L604.9,130.8 L606.0,133.6"/>
</g>
<g inkscape:groupmode="layer" inkscape:label="2-medium" fill="none" stroke="black" stroke-width="1.1" stroke-linecap="round" stroke-linejoin="round">
<path d="M187.2,210.5 L199.0,212.1 L216.4,216.1 L234.1,218.4 L248.5,222.0 L254.4,222.9"/>
<path d="M241.4,232.9 L221.5,230.4 L210.4,227.2 L202.5,223.7 L200.1,222.1 L188.5,213.6"/>
<path d="M187.0,211.0 L181.6,227.4 L171.2,251.2 L166.7,264.9"/>
<path d="M169.0,267.6 L167.5,273.3 L163.9,281.4 L143.1,339.9 L141.9,351.5 L140.8,378.2 L140.0,383.9 L140.5,392.8 L138.6,401.6 L135.8,451.8 L134.1,463.5"/>
<path d="M138.8,460.0 L138.7,445.0 L139.9,433.1 L139.4,421.1 L140.8,412.1"/>
<path d="M141.9,384.4 L144.4,369.7 L144.1,363.8 L144.5,360.9 L145.5,358.1 L148.8,337.5 L152.3,326.1 L161.1,304.0 L163.7,295.4 L168.7,284.7 L170.1,278.9 L173.9,267.6"/>
<path d="M191.4,273.0 L190.1,287.8 L189.8,305.6 L187.8,320.3 L187.7,323.3"/>
<path d="M192.1,322.9 L193.4,311.3 L193.1,296.7 L195.3,282.2 L194.8,270.5 L195.1,267.6"/>
<path d="M205.0,271.7 L204.0,283.3 L201.8,297.8 L201.2,312.4 L199.3,326.9"/>
<path d="M203.3,324.6 L204.8,312.8 L206.1,297.9 L208.6,283.2 L208.8,274.2"/>
<path d="M220.8,274.3 L220.4,280.1 L218.0,288.7 L217.6,291.6 L218.3,306.4 L217.9,309.3 L215.0,320.8 L214.8,323.8 L215.3,332.6"/>
<path d="M211.5,332.0 L213.9,305.2 L214.7,290.3"/>
<path d="M237.6,282.3 L237.8,288.2 L235.3,302.7 L235.7,320.3 L234.2,331.9 L234.0,337.8"/>
<path d="M237.0,345.7 L236.6,387.2 L233.8,428.6 L233.7,437.5"/>
<path d="M237.4,442.7 L237.7,433.7 L239.5,412.9 L239.6,382.9 L242.5,353.2 L243.4,332.3"/>
<path d="M247.9,322.3 L247.0,340.1 L244.0,428.9 L243.1,440.7"/>
<path d="M248.2,438.2 L249.8,396.8 L252.7,352.5 L254.0,314.0"/>
<path d="M244.5,320.9 L246.8,268.3"/>
<path d="M244.9,240.3 L222.5,235.7 L197.4,229.9"/>
<path d="M194.1,251.6 L195.1,254.3 L196.7,256.7 L210.9,275.4 L212.2,278.0 L212.9,280.8 L212.8,283.7 L209.2,304.0 L207.9,318.6 L207.9,327.4"/>
<path d="M195.6,332.5 L205.2,339.2 L213.3,347.7 L215.1,350.1 L216.1,352.9 L215.6,358.8 L214.1,364.4"/>
<path d="M209.5,371.5 L207.6,397.3 L208.3,417.5 L206.9,431.8 L206.8,437.6"/>
<path d="M197.6,443.5 L199.6,420.2 L200.7,391.0 L202.8,367.6 L203.4,341.3"/>
<path d="M198.8,341.1 L197.4,370.6 L195.6,429.8 L194.6,447.5"/>
<path d="M190.5,443.3 L190.7,431.6 L193.5,390.7 L196.3,335.2"/>
<path d="M190.4,332.6 L187.7,331.6 L184.9,331.3 L182.0,331.6 L173.9,334.9 L167.2,340.4 L154.5,356.4"/>
<path d="M167.2,361.1 L165.7,393.2 L162.7,422.2 L161.2,442.6"/>
<path d="M168.1,447.7 L168.7,433.1 L171.1,409.8 L172.0,386.4 L173.6,365.9 L173.6,357.1"/>
<path d="M183.5,352.5 L183.0,361.4 L181.4,376.1"/>
<path d="M180.0,370.1 L180.3,361.5 L180.0,347.1 L180.9,335.6"/>
<path d="M178.4,336.9 L175.4,375.1 L173.5,419.4 L171.3,448.8"/>
<path d="M175.8,444.8 L176.6,439.0 L176.7,436.1 L175.7,421.4 L177.8,406.9 L177.3,395.3 L177.6,392.3"/>
<path d="M181.3,384.3 L181.3,390.1 L179.5,407.4 L179.4,421.9 L178.6,436.4 L178.8,442.2"/>
<path d="M184.5,437.3 L184.9,408.1 L187.2,364.4 L189.1,344.1 L189.2,335.3"/>
<path d="M228.0,360.2 L228.0,383.8 L224.8,413.2 L224.4,422.0 L224.7,439.8 L224.0,448.6"/>
<path d="M218.0,455.9 L219.6,438.0 L219.8,420.0 L220.8,414.1 L221.0,402.1 L221.6,396.2 L221.1,387.2 L222.5,378.4 L222.6,345.4 L224.4,333.5 L224.7,324.5 L225.5,318.6 L225.5,297.6 L226.8,288.7 L228.4,282.8 L245.2,247.6 L249.4,236.3 L255.2,225.9 L258.9,217.7 L268.5,199.0 L272.1,187.6 L272.6,184.7 L272.6,181.7 L271.1,175.9 L271.3,172.8 L272.3,169.9 L279.8,153.5 L291.9,129.3 L300.4,110.2"/>
<path d="M332.8,147.0 L335.2,148.5 L340.7,149.9 L343.2,151.2 L347.8,154.7 L350.3,156.0 L358.5,158.3 L363.3,161.3"/>
<path d="M347.9,181.6 L346.2,187.3 L345.4,196.1 L342.8,204.7 L342.2,207.6 L342.6,213.4 L344.0,216.0 L344.6,218.8 L344.1,230.7 L344.7,236.6 L344.6,239.6 L343.2,248.4"/>
<path d="M336.7,253.4 L335.5,247.6 L336.2,223.9 L336.1,206.2 L339.0,188.7 L339.9,185.8 L341.3,183.2 L343.4,181.2"/>
<path d="M333.6,174.6 L331.4,183.1 L331.2,189.0 L330.5,192.0 L328.7,197.5 L328.5,203.3 L330.0,212.0 L330.0,238.6 L329.0,247.4"/>
<path d="M321.0,251.4 L322.0,242.6 L322.4,218.8 L322.3,198.0 L326.9,177.8 L328.3,175.3 L330.4,173.2"/>
<path d="M315.4,166.1 L313.5,168.4 L312.7,171.3 L308.7,194.8 L308.2,215.7 L307.5,224.6 L308.3,248.5 L307.3,254.5"/>
<path d="M301.3,260.3 L302.0,248.4 L302.6,218.7 L303.8,195.0"/>
<path d="M282.1,186.6 L281.8,195.4 L280.0,216.0 L279.0,242.5 L276.3,271.8"/>
<path d="M282.8,270.8 L283.3,265.0 L282.7,250.4 L283.9,233.0 L284.2,221.4"/>
<path d="M295.4,261.0 L301.1,259.7 L306.4,257.2 L320.9,254.6 L329.7,254.9 L341.2,257.3 L344.1,257.6 L347.0,256.9"/>
<path d="M346.9,256.7 L348.4,254.3 L349.4,251.6 L350.1,246.0 L350.8,222.6 L351.6,211.0 L353.6,199.5 L356.7,191.6 L358.6,189.3"/>
<path d="M360.3,189.3 L360.5,203.8 L360.0,221.2 L360.2,238.6 L359.6,256.0"/>
<path d="M360.0,261.8 L362.3,260.0 L364.1,257.8 L365.0,255.2 L365.4,252.4 L365.1,238.0 L365.9,223.6 L369.1,209.5 L369.9,206.8 L373.5,198.9 L378.7,191.9"/>
<path d="M381.9,210.1 L379.8,268.2"/>
<path d="M380.0,276.2 L376.3,272.3 L372.1,268.9 L369.0,264.4 L367.0,262.6"/>
<path d="M348.3,272.3 L347.9,307.7 L346.3,354.8 L346.6,407.9 L345.5,428.5"/>
<path d="M356.8,421.1 L356.5,379.2 L358.1,304.2"/>
<path d="M370.4,329.0 L367.9,429.3"/>
<path d="M362.4,457.9 L356.4,458.3 L348.5,462.3 L346.2,464.2 L344.6,466.6 L343.3,472.3 L342.7,493.0 L343.1,507.9 L341.5,513.6"/>
<path d="M344.9,523.1 L342.9,525.4 L341.8,528.2 L342.5,543.0 L341.9,575.5 L342.5,578.5"/>
<path d="M346.6,576.2 L347.2,555.9 L346.9,538.4 L347.5,526.8"/>
<path d="M354.4,525.5 L353.5,546.2 L354.1,572.9 L353.5,581.8"/>
<path d="M359.1,581.6 L359.5,575.7 L359.9,551.8 L358.4,530.9 L358.8,525.0"/>
<path d="M364.0,523.4 L366.3,525.2 L367.6,527.8 L368.0,530.7 L367.1,565.9 L366.2,580.5 L364.8,589.2 L365.4,598.0 L368.0,606.4"/>
<path d="M357.3,597.6 L346.1,594.8 L334.5,593.6 L323.4,590.5 L314.7,589.8 L311.9,589.3"/>
<path d="M316.1,578.0 L315.4,563.5 L315.6,557.7 L317.4,540.3 L316.8,520.0"/>
<path d="M305.0,523.6 L304.6,541.4 L305.0,576.8"/>
<path d="M297.0,572.8 L296.4,560.9 L297.7,543.0 L297.1,528.1 L297.6,522.2"/>
<path d="M296.2,520.3 L294.1,522.3 L292.4,524.7 L291.4,527.4 L290.5,533.2 L291.1,553.5 L293.3,558.9 L293.8,561.7 L293.9,570.4"/>
<path d="M282.9,558.4 L284.6,526.8 L285.1,524.1 L286.4,521.6 L288.2,519.5"/>
<path d="M284.9,517.1 L284.8,502.7 L285.8,485.5 L285.6,471.1"/>
<path d="M274.1,466.9 L273.6,475.5 L273.9,487.1 L272.6,498.5 L272.2,512.9"/>
<path d="M273.2,520.2 L272.2,522.8 L271.3,531.4 L270.3,537.0 L271.4,562.7 L274.0,570.8 L274.9,576.4"/>
<path d="M270.9,582.0 L228.1,576.1 L211.1,572.4"/>
<path d="M208.3,572.3 L209.0,557.5 L212.1,522.2 L213.9,480.8 L216.9,442.4 L217.3,427.7 L217.2,401.0 L217.8,389.2"/>
<path d="M218.4,379.5 L214.3,383.5 L212.0,391.9 L211.4,403.4 L211.7,420.7 L211.1,426.4"/>
<path d="M253.9,439.6 L254.6,427.7 L255.1,391.8 L257.3,349.9 L257.9,314.0 L258.5,302.1"/>
<path d="M264.0,301.2 L262.0,348.2 L261.7,395.2 L259.2,439.2"/>
<path d="M270.4,439.0 L271.0,412.5 L273.2,380.1 L274.0,344.8 L275.8,312.4 L275.9,288.9"/>
<path d="M271.4,284.4 L275.3,280.2 L286.9,271.8 L302.0,263.6 L313.2,260.9 L321.8,260.7 L330.4,260.0"/>
<path d="M321.0,259.5 L317.9,321.5 L316.7,365.8 L315.0,407.2 L315.0,424.9"/>
<path d="M300.4,428.9 L301.4,414.0 L303.7,360.0 L306.6,306.1 L307.5,264.1"/>
<path d="M300.0,267.7 L295.9,432.5"/>
<path d="M287.6,431.8 L290.2,383.9 L291.1,339.0 L293.8,294.1 L294.3,270.1"/>
<path d="M281.9,277.1 L281.5,303.7 L279.1,348.1 L278.1,389.5 L276.0,422.0 L275.6,433.9"/>
<path d="M303.2,464.5 L282.7,467.1 L262.0,468.5 L241.6,471.7 L220.9,473.0"/>
<path d="M224.9,472.5 L220.7,476.6 L219.2,482.4 L218.1,494.1 L217.7,508.7 L216.9,514.5 L217.2,543.9 L215.0,561.4"/>
<path d="M212.5,568.8 L189.6,564.2 L152.8,555.2 L132.7,551.7"/>
<path d="M131.5,544.9 L131.6,535.9 L133.6,512.2 L133.9,491.3 L135.0,479.4"/>
<path d="M142.0,480.1 L141.2,485.9 L141.1,506.0 L140.0,523.3 L139.6,540.5 L138.9,546.3"/>
<path d="M141.7,542.3 L142.3,527.6 L143.6,513.0 L143.7,498.3 L144.5,483.7"/>
<path d="M147.2,478.7 L147.1,490.3 L145.5,516.2 L144.2,548.0"/>
<path d="M149.1,547.2 L149.0,532.5 L151.2,515.1 L152.2,497.5 L154.0,480.1"/>
<path d="M155.7,481.1 L155.6,487.0 L153.8,504.6 L154.0,528.2 L152.8,545.9"/>
<path d="M161.6,548.6 L161.6,542.8 L163.0,531.3 L163.6,522.6 L163.1,496.6 L165.0,476.4"/>
<path d="M167.9,482.5 L167.1,494.0 L166.0,525.8 L164.6,548.9"/>
<path d="M174.2,550.3 L174.3,544.3 L176.8,523.5 L176.7,496.6 L178.3,475.8"/>
<path d="M181.2,482.1 L181.2,493.6 L179.7,508.0 L180.1,525.4 L178.0,542.6 L177.9,551.3"/>
<path d="M181.5,551.5 L181.2,542.6 L181.5,530.9 L183.9,501.5 L185.3,475.1"/>
<path d="M200.6,477.6 L199.4,483.5 L198.8,489.4 L198.7,507.4 L197.6,513.3 L196.7,516.2 L194.4,518.2"/>
<path d="M233.0,516.6 L231.0,518.6 L229.7,521.1 L229.0,523.9 L228.8,526.7 L229.3,540.8 L228.1,552.0 L228.9,560.4"/>
<path d="M237.1,563.3 L237.3,557.6 L238.6,546.4 L238.3,532.2 L240.0,523.8 L240.3,520.9 L240.1,518.1"/>
<path d="M234.2,522.0 L238.9,514.8 L241.3,486.1 L241.6,474.6"/>
<path d="M245.6,478.2 L245.1,486.9 L245.5,507.3 L244.1,542.2 L242.8,559.7"/>
<path d="M248.0,563.4 L247.6,554.6 L248.7,539.8 L248.7,525.1 L249.3,522.2 L250.8,519.6 L253.0,517.6"/>
<path d="M262.9,518.4 L260.7,520.6 L259.4,523.5 L259.6,538.6 L259.1,547.5 L259.8,565.4"/>
<path d="M264.9,564.9 L265.0,555.9 L266.3,532.0 L265.8,508.0 L267.8,484.0 L267.5,475.0"/>
<path d="M312.3,465.3 L311.6,483.2 L312.3,527.9 L311.7,584.5 L311.1,602.4 L309.4,632.2 L309.3,650.0"/>
<path d="M302.5,654.0 L304.2,655.8 L306.6,656.4 L317.4,655.8 L324.7,652.2 L326.8,650.4 L328.5,648.3"/>
<path d="M350.9,659.5 L353.8,664.2 L354.7,666.8 L355.2,675.2 L354.8,680.9"/>
<path d="M373.3,680.8 L373.2,678.3 L372.4,676.0 L372.8,673.4 L372.1,671.0"/>
<path d="M419.0,661.9 L424.6,660.4 L433.3,659.9 L438.9,658.8 L447.5,657.9"/>
<path d="M458.5,658.9 L464.1,658.7 L472.4,657.1 L480.9,657.2 L486.4,655.8"/>
<path d="M537.2,683.6 L545.9,682.2 L577.4,675.5 L615.1,669.4"/>
<path d="M611.9,675.5 L589.5,679.5 L572.8,683.3"/>
<path d="M563.5,638.0 L561.1,614.4 L560.4,602.6"/>
<path d="M547.3,577.0 L547.5,565.1 L545.4,514.6 L545.3,464.1"/>
<path d="M567.3,468.0 L568.2,479.9 L567.9,494.7 L568.5,506.6 L569.7,512.3 L573.9,516.5"/>
<path d="M574.1,521.2 L574.4,527.2 L574.1,542.2 L575.2,554.1 L574.2,569.1 L575.1,575.1"/>
<path d="M570.2,572.0 L569.1,569.2 L568.9,566.3 L569.0,540.1 L568.2,528.5 L568.6,525.6 L569.5,522.8 L571.4,520.5"/>
<path d="M574.3,506.9 L573.3,495.5 L573.1,475.3 L572.6,466.7"/>
<path d="M566.5,435.8 L567.2,390.9 L566.1,328.1 L567.0,274.3 L566.9,256.4"/>
<path d="M545.6,250.0 L545.3,273.7 L543.8,306.4 L545.2,339.0 L543.7,377.6 L544.5,404.3 L544.7,431.0"/>
<path d="M551.0,423.8 L552.0,364.1 L550.6,322.3 L550.7,313.3"/>
<path d="M571.9,296.9 L571.7,335.6 L572.7,365.4 L572.6,398.1"/>
<path d="M587.9,430.7 L587.7,403.9 L586.6,371.1 L587.3,335.3 L586.9,308.4 L587.2,281.6 L586.8,266.7"/>
<path d="M589.0,251.4 L591.4,236.9 L592.4,234.2 L595.9,229.6 L597.6,224.0 L597.3,218.2 L595.4,212.6"/>
<path d="M607.2,196.5 L608.4,202.4 L609.3,211.3 L608.4,220.2 L610.1,232.1 L608.5,240.9 L608.5,249.9 L609.4,258.8 L609.2,261.8 L608.3,264.7 L606.1,266.7"/>
<path d="M605.9,266.6 L603.4,264.9 L602.0,262.3 L601.8,259.2 L602.0,217.3 L600.1,208.5 L599.6,199.5 L601.0,187.6"/>
<path d="M628.2,185.0 L668.8,167.4 L706.6,150.4 L736.8,138.3"/>
<path d="M745.4,140.3 L734.7,145.3 L677.6,169.1 L628.8,190.2"/>
<path d="M630.9,196.2 L641.4,190.7 L663.0,180.4 L678.8,172.1"/>
<path d="M711.8,183.6 L710.2,186.1 L708.0,188.1 L702.4,190.1 L689.0,196.6 L652.5,209.9 L647.5,213.4"/>
<path d="M645.1,216.1 L647.8,217.4 L650.8,217.1 L664.5,212.4 L694.1,200.7 L707.4,195.0 L712.3,192.0 L716.3,187.9"/>
<path d="M723.9,190.2 L702.8,210.4 L670.4,240.0"/>
<path d="M678.7,256.4 L678.9,253.5 L682.2,245.2 L707.9,220.0 L728.5,198.3"/>
<path d="M731.0,204.8 L732.8,231.6 L733.8,258.4 L735.3,273.3"/>
<path d="M745.0,277.4 L741.2,266.3 L740.3,257.5 L739.9,242.8 L738.9,236.9 L738.4,222.2 L736.7,213.5 L736.9,207.6"/>
<path d="M745.2,220.2 L746.0,226.0 L746.5,240.7 L749.3,261.1 L749.9,275.8 L751.3,290.4"/>
<path d="M756.0,287.2 L754.9,269.6 L751.5,243.4 L750.6,217.0 L749.0,193.6"/>
<path d="M728.5,189.5 L719.2,200.7 L687.5,231.1 L677.4,241.6 L675.8,244.2 L673.5,252.6 L673.1,258.4"/>
<path d="M683.5,273.5 L684.5,276.2 L684.8,279.0 L684.6,287.6 L686.1,298.9 L685.6,304.6 L685.7,310.3 L685.0,313.0 L683.5,315.5"/>
<path d="M700.6,313.5 L701.0,319.5 L699.9,334.4 L699.8,340.4 L701.3,361.3 L701.0,367.3 L699.3,385.2 L699.8,397.2"/>
<path d="M688.6,420.3 L689.0,405.7 L688.3,388.2 L689.1,376.5 L689.0,370.7"/>
<path d="M677.1,372.6 L677.1,378.3 L678.8,392.6 L678.5,415.6 L679.8,438.6"/>
<path d="M670.9,452.3 L669.7,422.3 L669.6,392.3 L668.2,362.4"/>
<path d="M649.6,363.6 L650.3,369.3 L649.9,389.5 L651.2,415.5 L651.2,421.2"/>
<path d="M662.1,412.2 L660.1,383.1 L658.5,327.6"/>
<path d="M656.5,322.0 L652.3,283.7 L648.4,257.4 L646.9,242.6"/>
<path d="M639.9,240.0 L640.2,260.5 L642.7,301.4"/>
<path d="M642.1,306.9 L642.4,336.8 L643.5,366.7 L643.6,396.6 L645.3,426.4 L645.4,438.3"/>
<path d="M639.9,433.5 L639.7,421.5 L637.6,400.7 L637.1,391.7 L637.7,361.9 L636.6,332.0 L636.7,311.1"/>
<path d="M618.5,290.1 L618.3,301.9 L619.5,325.5 L619.4,349.1 L620.0,366.8"/>
<path d="M606.8,363.8 L607.5,340.0 L606.2,313.3 L605.6,277.6"/>
<path d="M603.4,262.7 L598.0,260.8 L579.7,252.3 L555.2,243.7 L544.8,238.7"/>
<path d="M539.4,238.9 L518.9,238.5 L513.1,237.7 L501.3,238.3 L478.5,243.7 L467.9,248.9 L465.1,249.8 L459.3,250.5 L456.6,251.6"/>
<path d="M453.8,261.3 L453.5,273.1 L454.1,302.7 L454.1,317.5 L452.5,358.9 L451.5,397.4 L450.3,421.0"/>
<path d="M444.6,417.1 L445.6,402.2 L445.7,375.2 L447.3,345.3 L446.5,312.4 L447.8,282.5 L447.7,264.5"/>
<path d="M429.6,278.8 L429.2,290.5 L429.4,317.0 L428.4,375.9 L427.7,390.6 L425.2,425.8"/>
<path d="M419.8,415.1 L419.6,400.2 L421.0,373.5 L420.8,361.6"/>
<path d="M456.9,413.4 L457.0,401.4 L458.6,374.5 L457.8,347.5 L459.4,317.6 L458.6,302.6"/>
<path d="M419.0,297.3 L413.5,295.9 L405.1,295.8 L402.3,295.5 L394.2,293.3 L388.6,293.1"/>
<path d="M389.0,286.2 L389.4,280.3 L389.3,268.5 L389.9,250.7 L389.8,232.9 L390.2,227.0 L392.1,212.3 L392.0,206.4"/>
<path d="M390.5,210.2 L389.9,189.9 L390.0,178.3 L389.7,175.4"/>
<path d="M410.1,161.6 L396.1,157.6 L373.0,153.8 L359.0,149.7 L342.0,145.8"/>
<path d="M378.2,135.7 L392.1,139.7 L408.6,145.2 L422.6,148.9"/>
<path d="M427.6,159.5 L434.2,153.5 L442.3,149.7 L451.7,142.2 L463.9,133.6 L484.1,120.7 L488.4,116.4 L490.1,110.6"/>
<path d="M507.2,151.8 L505.6,154.2 L504.9,157.0 L504.9,168.6 L504.1,174.3 L504.5,191.7 L505.0,197.4"/>
<path d="M519.9,210.9 L519.7,199.3 L521.0,164.4 L520.8,158.6"/>
<path d="M541.4,143.7 L541.1,149.4 L541.6,172.3 L542.7,192.3 L542.1,203.7"/>
<path d="M550.5,203.5 L548.8,197.8 L548.1,189.1 L548.5,186.2 L548.2,180.3 L548.4,151.1 L550.8,136.7 L548.0,125.4 L548.6,122.5"/>
<path d="M560.7,133.3 L561.6,142.1 L561.6,162.9 L562.7,183.7 L562.9,204.5 L563.7,222.3"/>
<path d="M581.0,229.5 L583.0,227.6 L583.9,221.8 L583.0,213.1 L582.2,192.6 L580.0,178.1 L580.3,172.2 L582.2,163.6"/>
<path d="M593.6,152.5 L599.4,159.3 L611.6,175.9 L621.3,187.1 L623.5,188.9 L626.1,190.3 L634.4,193.5"/>
<path d="M642.6,197.7 L656.3,192.3 L713.5,168.5 L723.0,161.3 L728.6,154.4 L730.8,152.5 L745.4,142.5"/>
<path d="M746.4,146.1 L738.6,150.7 L714.5,173.0 L695.3,181.1 L687.3,185.1 L656.7,197.4 L648.6,201.2 L646.2,203.0"/>
<path d="M622.1,218.6 L622.7,224.5 L622.5,233.5 L622.9,245.4 L624.1,260.3 L623.6,272.2 L624.7,278.0 L626.3,280.5"/>
<path d="M620.4,287.6 L623.8,292.6 L624.3,295.6 L624.9,313.5 L625.6,319.4 L625.5,358.3 L626.7,370.2 L626.5,409.1 L627.3,418.0 L627.3,429.9 L629.5,435.4"/>
<path d="M632.4,433.3 L632.3,424.3 L631.1,409.3 L631.8,394.3 L631.3,382.3"/>
<path d="M607.2,379.6 L607.9,406.2 L607.6,424.0 L608.3,432.9"/>
<path d="M626.4,472.2 L626.6,477.9 L625.8,492.2 L627.3,512.2 L626.9,532.3"/>
<path d="M639.8,517.5 L642.4,509.5 L643.8,507.0 L644.5,504.3"/>
<path d="M649.9,512.1 L655.8,506.0 L656.9,497.6"/>
<path d="M666.0,493.2 L664.0,495.4 L663.1,498.2 L664.3,510.0 L664.1,518.9 L663.0,524.7 L663.8,533.6 L664.1,542.4"/>
<path d="M657.1,532.5 L655.3,523.9 L654.5,515.2 L653.3,509.5"/>
<path d="M639.8,495.4 L640.2,492.5 L641.5,489.9 L645.1,485.5 L650.2,482.9 L653.0,482.4"/>
<path d="M595.6,519.5 L595.1,531.2 L596.1,548.7 L595.7,563.3"/>
<path d="M590.0,570.4 L588.5,561.5 L588.4,558.5 L589.6,534.6 L589.2,525.8 L588.2,523.0 L586.6,520.6"/>
<path d="M517.9,516.7 L518.0,510.8 L516.6,493.4 L516.6,467.3"/>
<path d="M499.0,461.7 L498.1,488.5 L499.7,512.4 L499.4,518.3"/>
<path d="M495.6,521.6 L497.5,523.8 L499.0,526.4 L499.3,529.4 L499.5,538.3 L499.0,556.1 L499.2,571.0 L498.5,576.9"/>
<path d="M510.0,580.0 L509.1,577.3 L506.1,572.4 L505.4,569.6 L505.0,546.6 L505.5,529.3 L505.1,523.6"/>
<path d="M480.9,508.0 L480.6,502.2 L481.3,490.6 L480.9,479.0 L481.1,467.4"/>
<path d="M475.6,459.5 L475.1,477.1 L475.5,506.4 L474.3,538.6 L475.2,567.9 L474.6,579.7"/>
<path d="M449.4,580.0 L450.1,577.1 L450.5,571.1 L450.6,538.5 L450.3,529.6 L450.8,526.7 L452.1,524.1 L454.3,522.1"/>
<path d="M449.7,513.1 L449.7,501.4 L450.7,486.8 L450.0,472.2 L450.6,466.3"/>
<path d="M425.2,464.6 L425.6,473.4 L424.3,496.9 L425.0,514.6"/>
<path d="M420.7,515.6 L418.5,507.0 L419.2,498.2 L419.4,489.3 L418.7,471.4 L419.8,465.6"/>
<path d="M411.2,466.2 L411.9,478.2 L409.9,499.1 L411.2,514.1"/>
<path d="M410.9,529.1 L411.4,543.8 L410.6,567.3 L410.9,576.2"/>
<path d="M409.1,579.7 L409.2,558.9 L408.4,544.0 L409.0,535.1"/>
<path d="M418.4,531.3 L418.6,534.3 L417.1,549.1 L417.2,555.0 L418.6,569.8 L418.6,575.7 L418.0,581.6"/>
<path d="M423.4,581.9 L424.8,555.4 L424.1,534.7 L425.7,526.0 L429.4,521.4"/>
<path d="M364.7,521.2 L363.3,536.1 L364.4,554.0 L364.2,560.0 L362.8,571.9 L363.1,577.9"/>
<path d="M407.0,594.4 L407.5,585.5 L405.8,579.8 L405.7,567.8 L406.7,529.0 L407.7,517.0 L406.3,508.1 L405.8,478.3 L406.5,466.4 L408.4,457.6 L407.9,433.6 L410.9,428.5"/>
<path d="M365.0,461.0 L362.8,462.9 L361.1,465.3 L360.3,468.1 L360.2,482.6 L359.3,505.8 L358.8,511.6 L357.8,514.2"/>
<path d="M357.8,514.3 L355.5,512.6 L354.6,509.9 L354.3,507.0 L355.2,492.7 L355.5,469.6"/>
<path d="M365.1,463.3 L365.6,480.9 L364.4,504.2 L364.5,515.9"/>
<path d="M292.4,590.9 L292.0,596.8 L291.4,632.4 L291.7,659.2 L291.4,668.1"/>
<path d="M291.6,666.8 L288.8,667.8 L282.8,667.6 L277.4,665.1 L272.6,661.5"/>
<path d="M270.4,621.9 L270.2,619.0 L271.2,610.2 L271.4,598.4 L272.0,589.6 L271.8,586.7"/>
<path d="M267.0,576.8 L261.4,576.2 L247.7,572.8 L236.4,571.6 L225.4,568.8"/>
<path d="M204.5,559.3 L206.2,508.4 L208.4,481.5 L208.6,472.5"/>
<path d="M209.9,473.0 L195.1,473.9 L168.5,477.6 L141.7,479.1 L109.1,481.8"/>
<path d="M111.2,482.5 L109.9,485.1 L109.2,487.9 L108.5,493.6 L108.3,502.5 L106.7,511.1 L106.7,531.7 L105.1,537.4 L102.0,542.4"/>
<path d="M110.8,543.9 L111.8,523.0 L113.4,505.2 L113.4,487.4 L114.1,478.4"/>
<path d="M85.4,469.7 L86.6,464.0 L87.7,422.6 L89.7,411.1 L89.2,405.2 L90.2,396.4 L91.4,372.7 L96.5,355.6 L102.0,338.8 L109.8,319.6"/>
<path d="M114.7,318.0 L113.2,323.7 L106.3,343.3 L99.9,372.3 L97.5,380.9 L92.6,394.9 L90.5,403.5"/>
<path d="M60.8,411.6 L65.1,394.6 L70.1,371.8 L77.6,346.5 L80.9,332.3 L83.3,323.9"/>
<path d="M72.5,346.6 L71.5,352.3 L68.5,360.5 L65.1,374.9 L60.4,391.9 L57.7,415.3 L59.1,421.0 L56.4,435.3 L56.3,452.9 L53.9,473.4"/>
<path d="M49.4,487.4 L48.5,496.2 L46.6,507.9 L45.9,516.7 L44.2,528.4 L44.1,534.3"/>
<path d="M33.9,540.4 L35.2,534.7 L40.0,517.9 L41.4,494.7 L44.2,489.8 L46.5,488.1"/>
<path d="M31.0,477.4 L31.0,465.6 L32.9,444.9 L35.4,433.3 L35.5,430.4 L34.4,418.6 L35.1,409.6 L37.0,400.8 L42.7,380.8 L46.0,372.6"/>
<path d="M55.2,355.1 L43.3,400.3"/>
<path d="M24.6,388.0 L22.8,399.3 L19.9,410.4 L17.8,424.6 L16.3,430.1"/>
<path d="M18.0,434.2 L16.6,442.9 L15.4,457.4 L12.3,480.5"/>
<path d="M83.0,614.2 L85.9,614.1 L88.8,614.5 L91.5,615.6 L105.6,625.8 L127.2,634.1 L132.8,635.4 L141.4,636.6"/>
<path d="M164.0,626.7 L156.0,622.6 L141.7,618.0 L136.4,615.2 L126.2,608.7 L114.8,604.8 L112.2,603.4"/>
<path d="M51.3,647.0 L50.0,655.3 L49.1,666.5"/>
<path d="M199.7,556.6 L202.1,524.5 L204.2,507.1 L204.4,498.3 L203.8,486.6 L204.5,477.8"/>
<path d="M403.5,288.2 L403.9,282.4 L403.4,276.5 L404.7,267.7 L404.2,261.8"/>
<path d="M408.1,271.9 L408.9,263.4 L408.6,257.7 L409.5,249.3 L412.4,244.5"/>
<path d="M416.5,272.4 L425.5,264.4 L427.4,262.1 L428.5,259.3 L429.3,253.4 L430.9,211.6"/>
<path d="M474.0,204.8 L476.1,207.0 L476.3,210.1 L475.7,225.1 L474.7,234.0 L472.8,239.6"/>
<path d="M479.0,255.6 L477.2,279.3 L476.9,309.0 L475.8,317.9 L476.5,329.8 L475.7,341.6 L476.0,407.1 L476.4,410.0 L478.8,415.4"/>
<path d="M481.8,414.0 L483.1,381.4 L483.8,319.2 L483.7,298.5 L482.8,265.9"/>
<path d="M506.7,264.6 L506.3,279.5 L506.3,312.3 L504.9,357.0 L505.2,401.7 L504.5,419.6"/>
<path d="M517.5,399.8 L518.4,323.3 L518.0,296.8 L516.7,258.5 L516.7,246.7"/>
<path d="M528.4,295.8 L528.6,331.4 L527.9,370.0 L528.3,405.6 L527.8,429.4"/>
<path d="M654.5,404.2 L654.2,392.7 L654.5,375.2 L653.3,357.9 L653.1,337.6"/>
<path d="M699.6,308.4 L706.3,302.7 L716.3,296.1 L719.0,294.8 L730.6,292.3 L745.4,291.1 L751.3,291.4 L763.2,292.6 L771.6,295.6"/>
<path d="M776.5,298.9 L775.4,281.5 L771.2,241.1 L768.9,215.1"/>
<path d="M776.5,207.9 L778.8,209.4 L784.9,222.9 L801.1,247.9 L816.5,273.3 L830.0,296.3 L831.8,305.0 L832.1,322.8 L835.0,355.4"/>
<path d="M829.6,361.5 L828.6,364.1 L828.4,366.7 L828.7,372.2 L829.2,374.9 L830.2,377.5 L832.1,379.6"/>
<path d="M834.6,384.9 L837.8,425.6 L841.2,454.6 L842.7,486.7"/>
<path d="M830.9,473.6 L831.1,485.4 L832.5,505.9 L833.4,508.6 L837.8,516.2 L839.0,525.0 L839.0,539.8 L839.8,545.6 L839.0,551.4"/>
<path d="M823.0,553.6 L823.1,538.9 L821.8,518.4 L822.1,494.9 L820.4,474.4"/>
<path d="M813.5,472.0 L814.9,483.6 L815.4,512.8 L818.4,556.5"/>
<path d="M811.2,556.4 L810.7,547.5 L810.6,517.9 L808.4,485.3 L808.5,467.6"/>
<path d="M775.0,470.2 L776.5,472.7 L777.2,475.5 L778.4,484.1 L777.9,498.7 L778.6,504.5 L778.5,507.3 L775.8,512.4"/>
<path d="M779.2,512.7 L779.2,521.6 L779.9,536.5 L780.0,557.4"/>
<path d="M772.2,555.4 L773.0,549.6 L773.3,535.0 L772.7,526.2 L771.7,520.5 L770.6,517.8 L768.1,516.5"/>
<path d="M768.1,516.6 L766.4,518.6 L766.0,524.3 L766.4,538.7 L767.2,547.3 L767.3,555.9 L768.2,558.6"/>
<path d="M758.2,566.5 L757.7,571.9 L755.3,579.7 L753.9,587.8"/>
<path d="M760.4,573.0 L766.3,573.1 L771.7,575.2 L774.1,576.9 L778.3,580.8 L781.0,581.8"/>
<path d="M789.4,606.8 L789.3,609.6 L790.9,617.7 L790.8,623.2 L791.7,628.7 L791.7,634.2"/>
<path d="M789.0,640.5 L823.8,638.7 L832.6,638.9"/>
<path d="M827.2,632.9 L838.9,632.8 L859.4,631.3 L877.0,631.1 L897.5,629.3 L906.3,629.2"/>
<path d="M916.1,639.8 L910.1,639.5 L892.3,640.8 L874.4,640.7 L862.6,642.0 L856.6,642.1"/>
<path d="M854.8,637.4 L872.1,635.9 L906.9,634.2 L921.4,634.0"/>
<path d="M914.8,661.3 L903.2,662.5 L891.6,663.0 L877.3,664.9 L862.8,665.3"/>
<path d="M844.4,670.9 L841.7,670.0 L836.1,669.5 L824.7,670.3 L813.3,670.1 L799.0,670.8 L796.1,670.2 L793.4,669.1 L791.3,667.1"/>
<path d="M781.4,687.0 L778.5,686.7 L770.0,684.2 L761.2,685.2 L750.0,689.0 L746.9,689.4 L741.1,688.6 L735.3,689.7 L732.3,689.6 L726.4,688.8 L711.6,688.9 L708.8,687.9 L701.5,683.0"/>
<path d="M710.1,616.6 L710.2,613.7 L709.4,602.1 L709.4,587.6 L708.3,573.1 L708.4,567.3"/>
<path d="M742.1,561.7 L739.3,556.8 L738.6,542.3 L738.6,533.6 L737.8,524.9 L738.1,521.9 L740.5,516.6"/>
<path d="M770.0,512.5 L767.8,510.7 L766.4,508.3 L765.8,505.6 L765.6,491.6 L763.5,472.0"/>
<path d="M768.0,441.6 L770.3,439.9 L770.8,437.1 L770.4,428.2 L771.9,419.5 L772.0,416.5 L770.4,407.8 L771.1,401.9 L771.3,372.3 L769.1,360.7 L768.9,357.9 L769.7,352.0 L769.7,349.0 L768.0,331.3 L768.0,313.6"/>
<path d="M773.2,305.4 L773.6,317.2 L776.8,361.6 L778.0,403.0 L779.7,438.6"/>
<path d="M783.0,442.6 L785.3,440.9 L785.7,438.1 L785.3,426.3 L783.4,411.7 L783.8,397.0 L782.5,385.3 L783.1,370.6"/>
<path d="M792.6,355.2 L793.9,357.8 L794.4,366.7 L795.5,375.5 L795.2,390.3 L796.0,396.2 L795.7,414.0 L795.1,416.8 L793.0,418.5"/>
<path d="M792.9,418.7 L790.6,417.1 L789.9,414.2 L789.0,391.2 L790.0,382.6 L788.8,371.0 L788.2,359.5 L790.0,351.0"/>
<path d="M790.0,351.0 L786.9,343.1 L786.9,340.2 L789.1,335.1 L789.3,329.4 L788.7,323.8 L787.1,318.5 L785.8,316.1"/>
<path d="M784.5,299.4 L783.0,296.9 L782.3,294.2 L780.4,282.8 L779.7,274.1 L777.8,259.6 L777.6,248.0 L775.9,233.6"/>
<path d="M757.1,216.5 L757.5,234.5 L760.6,264.4 L761.8,288.3"/>
<path d="M731.9,298.8 L729.9,300.9 L729.0,303.6 L730.1,312.2 L728.7,320.6 L729.0,332.0 L728.7,343.4 L728.0,349.0"/>
<path d="M723.0,361.7 L722.7,329.4 L724.1,305.9"/>
<path d="M741.3,317.6 L742.5,329.1 L741.9,343.6 L742.4,355.2 L742.2,358.2 L741.1,360.9 L739.0,362.5"/>
<path d="M728.3,371.9 L727.9,389.2 L728.1,423.9 L727.3,441.2"/>
<path d="M733.8,445.1 L734.3,433.2 L733.1,418.3 L734.5,400.5 L733.6,391.5 L733.6,385.6"/>
<path d="M739.4,397.5 L739.7,403.3 L739.2,411.9 L739.6,420.6 L738.7,432.1 L739.3,440.8"/>
<path d="M753.9,439.7 L751.6,437.8 L750.4,435.1 L749.8,432.1 L750.6,423.4 L749.9,417.6 L750.0,400.0 L749.3,388.3 L751.4,370.9 L752.5,368.3 L754.5,366.3"/>
<path d="M759.3,360.7 L761.5,392.8 L761.8,413.2 L761.6,430.7"/>
<path d="M790.6,515.2 L791.7,517.9 L791.8,529.5 L793.1,553.0 L794.7,555.6 L796.9,557.5"/>
<path d="M774.3,608.6 L773.6,611.3 L774.9,616.6 L775.0,619.3 L774.2,624.6 L774.0,632.7"/>
<path d="M773.2,633.1 L770.5,633.2 L767.8,632.7 L765.2,633.1 L760.0,635.3 L751.8,634.1 L749.2,635.3"/>
<path d="M631.4,634.7 L631.2,614.6 L630.5,603.0 L631.5,588.6 L631.1,582.9"/>
<path d="M619.0,607.4 L621.1,609.1 L623.3,613.8 L624.2,621.8 L624.4,629.9"/>
<path d="M860.0,536.4 L859.2,530.6 L859.2,527.6 L860.4,515.9 L858.0,501.2 L857.7,492.3 L856.9,486.5 L856.9,456.8 L855.9,448.0 L855.8,439.1 L855.5,436.2 L853.1,427.7 L853.4,421.7 L853.2,418.8 L852.5,416.0 L853.8,410.2 L853.7,407.2 L852.1,401.5 L850.6,398.9 L848.5,396.8 L846.0,395.2"/>
<path d="M893.0,472.6 L896.3,513.0 L899.1,518.1 L901.0,520.2"/>
<path d="M904.8,518.4 L902.8,512.9 L900.2,492.3 L899.8,486.4 L899.8,474.5 L899.1,468.6"/>
<path d="M931.8,459.0 L932.3,470.6 L936.2,519.8"/>
<path d="M950.0,516.3 L949.6,510.4 L947.1,492.7 L945.4,472.0 L943.8,460.3"/>
<path d="M985.2,435.4 L984.0,438.1 L982.8,444.0 L981.4,446.6 L976.4,454.0 L976.0,457.0 L976.1,463.0 L978.0,471.8 L979.6,486.6 L979.3,498.6"/>
<path d="M994.4,480.2 L992.6,482.6 L992.3,485.5 L993.6,494.2 L993.8,505.8 L995.0,517.3 L994.0,520.0 L992.3,522.4"/>
<path d="M985.5,522.7 L942.1,521.3 L921.8,522.1"/>
<path d="M910.5,526.2 L911.5,541.2 L913.3,559.0 L913.4,577.0 L914.0,583.0"/>
<path d="M969.0,579.9 L965.0,545.2 L963.4,527.7"/>
<path d="M1005.3,517.4 L1004.6,534.9 L1004.6,569.8"/>
<path d="M990.7,443.3 L999.1,441.5 L1007.7,441.7 L1016.1,439.9 L1021.8,439.8"/>
<path d="M988.9,411.1 L988.1,402.3 L985.0,379.0 L983.3,343.9 L979.6,314.8 L979.1,306.0"/>
<path d="M995.4,305.1 L1001.2,303.7 L1012.6,300.0 L1027.2,296.8 L1038.6,293.4"/>
<path d="M1044.4,244.5 L1038.7,243.5 L1024.1,242.0 L1018.3,240.9 L998.6,235.2 L987.2,232.4 L984.7,230.9 L982.5,229.0"/>
<path d="M983.4,221.2 L965.8,221.5 L963.0,222.0 L921.9,237.9 L902.6,245.0 L894.5,248.5"/>
<path d="M861.1,261.3 L850.6,266.0 L836.9,270.3 L820.9,276.9"/>
<path d="M825.5,273.7 L822.3,268.8 L815.2,255.8 L803.5,238.7 L794.4,223.5 L785.9,211.4 L782.9,206.3"/>
<path d="M782.7,196.5 L767.5,171.3 L753.2,149.0 L751.2,140.5 L748.8,135.2 L748.1,132.3 L747.0,123.6"/>
<path d="M757.0,138.6 L758.1,144.4 L760.0,150.0 L761.4,152.6 L770.9,167.7 L787.3,192.4 L788.6,195.1 L789.3,198.0"/>
<path d="M698.6,281.9 L698.9,284.8 L698.6,287.9 L699.4,296.8"/>
<path d="M581.0,229.6 L579.0,227.6 L578.3,224.8 L578.1,221.9 L579.2,216.3 L579.3,210.6 L577.5,193.7 L576.4,191.2 L573.3,186.5"/>
<path d="M570.6,198.6 L569.3,181.0 L569.2,163.3 L568.1,151.6 L567.9,145.7"/>
<path d="M600.5,133.1 L585.3,114.6 L566.9,91.0 L551.7,72.6"/>
<path d="M953.9,250.7 L955.2,259.4 L955.6,274.0 L958.2,288.4 L958.4,300.1"/>
<path d="M956.0,302.2 L950.5,303.4 L945.6,306.2 L937.4,307.8 L932.4,310.3 L929.5,310.5"/>
</g>
<g inkscape:groupmode="layer" inkscape:label="3-fine" fill="none" stroke="black" stroke-width="0.7" stroke-linecap="round" stroke-linejoin="round">
<path d="M127.5,268.5 L130.3,268.9 L135.6,271.0 L138.3,271.6 L146.9,271.5 L149.6,272.3 L154.9,274.6 L157.8,274.7"/>
<path d="M161.4,280.0 L152.7,279.6 L138.5,277.0 L130.2,274.7 L125.3,271.7"/>
<path d="M122.5,274.3 L120.5,279.5 L117.4,290.3 L113.3,300.7 L111.1,308.7"/>
<path d="M113.1,313.7 L110.5,312.6 L105.1,311.5 L93.9,311.1 L85.9,308.8"/>
<path d="M87.1,314.4 L95.5,316.6 L104.1,317.9 L107.1,317.8 L112.5,315.5"/>
<path d="M130.8,293.5 L136.0,295.0 L144.2,295.0 L146.8,295.6 L151.8,297.9 L154.5,298.2"/>
<path d="M164.1,261.5 L166.4,256.3 L166.9,247.8"/>
<path d="M252.0,217.4 L253.0,214.6 L258.7,204.6 L267.2,186.3"/>
<path d="M286.9,178.6 L288.4,167.0 L289.1,149.4 L290.7,137.8"/>
<path d="M297.4,151.4 L301.7,141.0 L302.5,129.8 L302.1,118.4 L303.0,112.9"/>
<path d="M424.4,158.0 L425.9,155.8 L426.9,153.3 L426.8,150.5 L427.7,148.0 L429.3,145.7 L430.9,140.7"/>
<path d="M431.2,162.6 L433.9,161.2 L441.3,156.2 L462.1,144.4"/>
<path d="M493.9,119.4 L495.6,114.3 L496.7,106.3 L498.0,101.1"/>
<path d="M515.6,79.0 L517.7,77.0 L523.1,74.7 L529.2,68.5 L534.3,65.9 L538.6,62.1"/>
<path d="M629.0,191.4 L629.4,196.9 L630.8,199.4 L632.5,201.6 L638.7,207.2 L641.4,207.3"/>
<path d="M640.7,204.8 L639.9,202.4 L636.8,198.4 L636.0,196.0 L634.7,194.0"/>
<path d="M645.6,203.3 L644.2,216.0"/>
<path d="M617.1,228.8 L617.3,246.8 L619.2,264.6 L618.9,273.6"/>
<path d="M648.3,324.5 L648.9,327.5 L649.0,330.5 L648.3,336.4 L649.1,351.3"/>
<path d="M681.1,346.4 L679.7,348.8 L678.0,354.0 L677.2,367.9 L677.9,373.4"/>
<path d="M681.3,375.1 L681.0,372.0 L681.6,369.1 L683.7,363.3 L683.4,357.2 L684.6,351.4 L684.6,348.3"/>
<path d="M719.8,407.5 L719.4,416.2 L720.6,424.9 L720.1,436.5 L720.7,439.4"/>
<path d="M739.5,468.4 L749.1,469.2"/>
<path d="M743.0,474.9 L743.5,486.7 L743.0,495.6 L743.5,507.4"/>
<path d="M747.2,518.9 L746.6,524.9 L746.7,536.9 L744.7,551.7 L745.0,554.7"/>
<path d="M742.1,563.1 L744.6,562.9 L747.0,562.1 L751.9,561.6"/>
<path d="M761.0,555.2 L760.5,549.6 L760.7,541.1 L759.9,532.7 L759.6,521.5"/>
<path d="M767.4,509.9 L769.5,507.9 L771.1,505.5 L771.8,502.7 L771.8,496.9 L772.2,491.0 L771.1,482.4 L771.0,476.6"/>
<path d="M783.5,475.4 L783.6,478.3 L784.6,483.9 L783.9,492.4 L785.2,500.8 L785.2,506.5"/>
<path d="M792.1,508.7 L791.2,503.0 L791.1,500.1 L791.7,491.4 L791.6,488.6 L789.9,480.0 L789.6,471.4"/>
<path d="M794.1,469.6 L793.5,472.1 L796.8,480.2 L796.8,494.8 L797.9,503.4"/>
<path d="M804.1,506.0 L803.1,500.5 L803.5,489.3 L802.3,475.4 L801.7,472.7 L800.0,470.4"/>
<path d="M822.9,470.5 L824.5,472.9 L825.8,478.5 L825.5,493.1 L826.3,498.8 L826.3,507.4"/>
<path d="M826.9,512.3 L827.0,518.2 L828.4,529.8 L828.7,541.5 L829.5,553.1"/>
<path d="M834.4,550.8 L834.8,542.1 L832.8,530.6 L833.7,521.9 L833.6,519.0 L832.5,513.3"/>
<path d="M834.6,511.1 L831.9,511.1 L829.3,510.3 L826.7,510.2 L821.4,511.5 L818.8,511.2"/>
<path d="M834.2,510.4 L836.8,505.2 L837.5,502.4 L836.7,481.7 L835.7,475.8 L834.7,473.1"/>
<path d="M867.9,472.9 L867.4,487.4 L868.7,501.9 L868.3,504.8"/>
<path d="M859.7,520.7 L868.0,519.9 L879.0,521.9 L884.6,521.4 L890.1,521.6"/>
<path d="M862.0,549.6 L862.4,552.5 L862.3,555.5 L860.5,564.1 L859.1,566.7 L856.7,568.4 L853.9,569.5"/>
<path d="M816.6,555.7 L810.8,556.6 L796.4,558.0"/>
<path d="M799.4,557.9 L799.1,540.1 L797.5,522.4 L797.9,516.4"/>
<path d="M803.9,516.6 L803.7,519.7 L805.5,537.6 L805.9,555.5"/>
<path d="M786.7,556.0 L786.2,538.9 L785.5,530.3 L786.1,518.8"/>
<path d="M757.9,506.7 L758.4,494.9 L758.0,477.3"/>
<path d="M677.2,464.1 L677.0,461.3 L677.6,455.6 L675.9,450.1 L676.2,441.6"/>
<path d="M670.4,446.3 L671.3,463.2"/>
<path d="M676.4,464.0 L671.9,467.5 L666.5,469.1 L663.6,469.1"/>
<path d="M658.0,433.3 L655.2,433.3 L652.6,434.4 L649.8,434.2 L647.1,434.8"/>
<path d="M625.5,465.3 L611.6,465.8 L600.5,467.3 L597.7,467.0"/>
<path d="M587.6,464.9 L581.9,464.4 L576.2,464.7 L570.5,464.0"/>
<path d="M567.5,468.0 L565.5,465.8 L562.9,464.3 L560.1,463.4 L554.3,463.3 L551.4,463.6 L548.6,464.5"/>
<path d="M544.8,466.0 L542.4,464.4 L537.0,462.4 L534.1,462.2 L525.6,463.6"/>
<path d="M528.8,470.6 L528.6,482.4 L529.5,500.0 L529.0,511.7"/>
<path d="M525.6,515.2 L530.5,517.6 L533.2,518.0 L535.9,517.7 L541.0,516.0 L545.5,512.9"/>
<path d="M540.3,508.4 L539.3,502.6 L540.1,491.1 L539.4,479.6 L539.9,470.9"/>
<path d="M505.1,467.3 L504.6,488.2 L505.1,512.0"/>
<path d="M499.9,513.9 L502.1,515.9 L505.0,516.8 L510.9,516.4 L516.8,517.0 L519.5,515.7 L521.8,513.9"/>
<path d="M492.8,509.2 L493.9,500.6 L492.4,489.1 L493.1,477.6 L493.1,469.0"/>
<path d="M498.5,464.9 L496.7,462.7 L494.2,461.4 L483.2,461.3 L480.5,461.9 L478.2,463.4"/>
<path d="M474.4,465.0 L469.8,461.7 L467.3,460.5 L464.4,460.0 L458.5,459.8 L453.3,462.6"/>
<path d="M450.4,465.0 L446.5,461.1 L441.3,459.2 L432.9,459.2 L427.6,460.6"/>
<path d="M426.3,419.9 L421.8,423.4 L419.1,424.2 L416.1,423.9 L411.2,420.9"/>
<path d="M372.8,453.6 L371.3,455.8 L371.4,458.7 L369.7,460.8 L368.6,463.2"/>
<path d="M369.2,461.7 L370.0,464.7 L368.3,470.5 L369.7,476.3 L369.0,479.3"/>
<path d="M349.0,468.1 L349.0,471.0 L347.6,479.6 L347.5,482.5 L349.0,497.0 L347.7,508.6"/>
<path d="M336.7,514.0 L337.9,469.6"/>
<path d="M333.5,472.4 L332.7,483.5 L331.9,508.4"/>
<path d="M327.4,521.7 L338.6,522.1 L349.9,521.5 L358.3,522.2"/>
<path d="M358.4,523.6 L355.9,525.1 L352.8,524.5 L350.4,526.2 L347.6,526.9"/>
<path d="M316.2,515.0 L316.4,512.3 L318.3,507.2 L318.7,501.8 L319.4,499.2"/>
<path d="M319.8,499.0 L318.3,493.3 L319.5,484.5 L318.9,475.5 L314.3,467.9"/>
<path d="M314.0,467.4 L316.7,466.4 L318.9,464.3 L321.5,463.0 L324.4,462.4 L329.6,459.8"/>
<path d="M328.4,465.3 L330.9,463.7 L337.0,463.0 L341.9,459.5 L344.8,458.7"/>
<path d="M313.5,462.6 L311.0,463.2 L308.8,464.8 L306.4,465.7 L303.6,465.7 L301.2,466.7"/>
<path d="M302.0,467.0 L299.3,471.8 L298.8,474.6 L299.4,480.2 L299.2,485.7 L299.9,488.4"/>
<path d="M307.5,474.5 L306.4,483.4 L307.5,495.3 L305.5,515.9"/>
<path d="M309.0,519.5 L303.5,521.3 L297.8,522.3"/>
<path d="M290.8,506.2 L291.5,494.3 L291.9,473.4"/>
<path d="M279.9,475.6 L278.8,481.1 L279.0,500.8 L278.8,506.5 L276.2,511.5"/>
<path d="M270.3,518.2 L267.4,517.8 L261.6,518.0 L252.9,517.2"/>
<path d="M250.1,514.9 L250.2,512.0 L249.3,503.3 L249.5,500.4 L251.2,488.8 L250.4,477.2 L251.2,471.4"/>
<path d="M231.8,471.3 L231.6,480.0 L230.5,491.6 L230.9,500.3 L229.4,511.8 L229.6,514.7"/>
<path d="M207.3,515.4 L204.8,514.6 L202.2,514.4 L199.5,514.7 L197.0,513.7 L191.7,514.0"/>
<path d="M193.0,514.5 L191.3,516.8 L190.6,519.5 L189.4,536.3 L189.5,547.6 L189.2,550.4"/>
<path d="M196.6,555.6 L197.5,547.2 L196.9,533.2 L198.2,522.1 L198.4,516.6"/>
<path d="M190.6,509.2 L190.7,506.4 L191.7,500.7 L191.3,489.3 L192.5,477.9"/>
<path d="M218.6,473.1 L218.6,467.8 L217.6,459.9 L217.9,457.2"/>
<path d="M170.7,513.1 L167.9,513.0 L162.3,511.4 L156.4,512.5 L153.6,511.6"/>
<path d="M168.4,555.0 L171.1,555.7 L182.4,557.0 L193.4,559.6 L207.3,562.0"/>
<path d="M275.4,562.9 L277.9,539.5 L278.5,524.7"/>
<path d="M272.8,624.9 L272.3,627.7 L273.1,636.0 L273.1,638.8 L271.6,647.1 L272.3,655.4 L271.7,660.9"/>
<path d="M373.9,665.3 L373.4,651.3 L373.6,637.3 L373.1,631.7"/>
<path d="M371.3,602.0 L370.5,599.4 L370.8,596.6 L370.2,591.3 L370.7,588.6 L370.1,586.0"/>
<path d="M408.3,585.9 L416.5,586.0 L419.2,585.5 L421.5,583.9 L423.4,581.9"/>
<path d="M426.6,583.2 L431.8,584.6 L440.0,585.0 L442.7,584.3 L447.5,581.9 L449.4,580.0"/>
<path d="M475.5,576.9 L479.9,580.7 L482.6,581.6 L488.4,581.8 L491.2,581.3 L493.8,580.3 L498.4,576.9"/>
<path d="M511.1,580.4 L509.6,582.9 L502.1,591.4 L494.1,603.0"/>
<path d="M506.3,649.4 L501.3,651.3 L495.8,651.0 L485.4,653.1"/>
<path d="M504.6,655.7 L505.4,664.0 L504.3,672.5 L504.3,675.3 L506.1,683.6 L506.3,686.4 L505.5,692.0 L505.7,694.8"/>
<path d="M510.7,689.5 L513.5,689.1 L524.8,688.9 L538.7,686.6 L541.5,686.6"/>
<path d="M526.1,684.4 L526.6,675.8 L525.7,667.2 L525.4,650.0"/>
<path d="M521.2,654.0 L521.5,656.7 L520.4,667.8 L520.9,676.1 L520.9,687.1"/>
<path d="M548.5,632.7 L549.3,623.8 L548.8,612.0 L549.9,600.3 L549.7,594.3"/>
<path d="M550.5,596.0 L553.1,596.1 L558.3,594.9 L566.2,595.4 L568.9,595.0"/>
<path d="M566.7,574.5 L564.3,576.3 L561.5,577.2 L555.6,577.8 L552.8,577.3 L548.0,574.0"/>
<path d="M570.0,573.0 L575.6,574.6 L578.6,574.5 L581.4,575.2"/>
<path d="M594.6,568.1 L606.2,567.8 L614.8,568.7 L617.5,567.8 L619.8,566.0"/>
<path d="M620.4,567.0 L621.2,564.6 L620.2,561.9 L620.5,559.4 L621.2,556.9"/>
<path d="M614.8,552.3 L618.9,549.4 L624.2,544.2"/>
<path d="M620.0,539.4 L620.1,536.8 L622.1,529.1"/>
<path d="M615.0,551.8 L614.7,554.6 L615.8,560.2 L615.5,565.7"/>
<path d="M643.7,555.1 L646.4,556.0 L649.3,556.1 L654.7,557.9 L657.6,557.7 L660.3,558.7"/>
<path d="M659.1,557.5 L661.0,581.2"/>
<path d="M669.2,560.0 L668.9,557.2 L666.3,552.2 L665.1,546.8"/>
<path d="M702.9,551.6 L703.2,554.4 L705.2,559.5 L706.9,561.8 L709.0,563.7 L711.5,565.0"/>
<path d="M792.3,641.5 L789.4,646.6 L788.6,649.5 L788.9,652.5 L790.4,658.3 L791.4,667.0"/>
<path d="M794.5,665.5 L800.1,664.6 L808.5,665.4 L816.8,663.6 L819.6,663.5 L822.4,664.1"/>
<path d="M816.6,673.6 L782.5,686.8"/>
<path d="M789.0,646.0 L806.9,645.8 L827.6,642.7 L833.5,642.8"/>
<path d="M833.0,639.6 L834.9,641.6 L836.3,644.0 L837.8,658.0 L837.7,663.7 L837.1,666.4"/>
<path d="M905.2,586.1 L908.0,585.9 L913.6,586.5 L916.4,587.3 L919.2,587.0"/>
<path d="M947.9,597.7 L949.4,603.0 L949.7,605.7 L949.0,611.3 L950.6,619.3"/>
<path d="M951.3,626.5 L952.0,635.3 L953.6,643.9 L953.9,652.7 L954.5,655.6"/>
<path d="M949.8,536.4 L950.3,533.8 L952.6,532.0 L953.8,529.7 L954.0,526.8 L956.0,524.9"/>
<path d="M1001.1,494.8 L1000.3,473.0"/>
<path d="M1019.8,519.4 L1021.4,521.7 L1025.4,529.3 L1030.8,536.0"/>
<path d="M986.8,406.9 L984.4,408.7 L981.7,409.8 L975.8,409.7 L970.2,408.0"/>
<path d="M975.6,404.4 L975.5,401.8 L973.7,396.9 L974.4,391.5 L972.3,386.6"/>
<path d="M979.9,385.6 L982.1,387.1 L983.4,389.4 L983.8,392.0 L984.0,402.4"/>
<path d="M967.4,397.6 L964.5,397.6 L955.8,399.5 L946.9,399.5 L944.0,400.2"/>
<path d="M945.7,399.6 L945.8,396.6 L941.2,379.3 L941.4,376.3"/>
<path d="M941.9,371.0 L964.1,368.1"/>
<path d="M963.6,369.0 L965.2,371.3 L966.0,374.1 L967.3,385.5 L966.9,391.3 L965.5,396.8"/>
<path d="M962.7,394.4 L960.6,386.0 L959.9,374.4 L960.4,371.5 L964.8,364.0"/>
<path d="M964.9,363.9 L965.0,361.1 L963.2,352.9 L963.2,344.5 L962.8,341.8 L960.8,336.7 L959.0,334.6"/>
<path d="M961.0,332.8 L958.1,333.2 L950.0,336.1 L944.1,336.5 L941.4,337.3 L936.0,339.5 L933.1,339.8"/>
<path d="M957.4,338.6 L958.7,365.1"/>
<path d="M1007.8,355.1 L1013.5,354.7 L1016.3,354.1 L1024.4,351.3 L1029.9,349.9 L1041.3,348.9 L1044.0,347.9"/>
<path d="M1042.3,342.9 L1030.6,344.4 L1022.0,346.4 L1016.2,346.8 L1013.3,347.4"/>
<path d="M1016.1,346.4 L1012.3,342.6 L1011.7,340.0 L1011.5,334.7 L1012.5,329.6"/>
<path d="M1010.5,331.1 L1010.3,328.2 L1008.9,322.5 L1008.5,313.8"/>
<path d="M999.5,308.3 L1002.2,307.2 L1011.0,306.3 L1013.8,305.7 L1021.9,302.2 L1033.4,299.9"/>
<path d="M1037.6,323.1 L1026.6,326.2 L1012.5,328.6 L1009.8,329.6"/>
<path d="M940.3,300.9 L937.9,299.3 L936.1,296.9 L935.4,294.0 L932.8,265.6"/>
<path d="M949.7,273.5 L949.0,270.6 L949.0,267.7 L949.8,264.8 L950.0,261.9 L949.3,259.0 L949.1,256.1 L949.6,253.1 L949.0,250.2"/>
<path d="M948.6,244.7 L951.5,244.0 L959.3,239.9 L964.9,238.1 L967.7,237.7 L976.4,238.0"/>
<path d="M985.2,226.8 L987.8,227.9 L996.3,228.9 L1004.5,231.5 L1010.1,232.3 L1012.8,233.2"/>
<path d="M903.2,270.3 L903.5,273.2 L903.2,279.2 L904.1,291.1"/>
<path d="M904.6,290.4 L901.8,290.9 L894.0,293.9 L886.0,296.3"/>
<path d="M884.9,295.2 L885.1,290.2 L883.9,287.8 L884.0,282.7"/>
<path d="M880.1,278.0 L896.2,273.0 L898.7,271.7"/>
<path d="M897.7,271.6 L898.4,274.3 L898.1,279.8 L898.6,282.5 L899.1,290.7"/>
<path d="M891.4,301.4 L891.2,304.0 L892.4,306.5 L892.5,309.1 L891.4,311.7 L892.9,316.8"/>
<path d="M891.4,315.6 L889.4,313.6 L887.8,311.3 L884.6,297.3 L884.9,294.4"/>
<path d="M858.9,304.8 L858.6,302.1 L858.9,296.6 L857.7,291.3 L858.2,285.8"/>
<path d="M853.3,290.5 L852.5,293.1 L854.5,298.0 L854.0,300.5 L854.4,305.5"/>
<path d="M858.1,304.5 L844.8,309.2"/>
<path d="M848.4,314.4 L847.6,316.9 L847.7,322.1 L847.4,324.6 L848.2,327.2 L847.5,329.8"/>
<path d="M844.2,329.4 L844.2,326.4 L842.3,317.5 L841.1,296.6"/>
<path d="M804.2,297.2 L804.1,291.7 L801.9,275.2 L801.6,266.9"/>
<path d="M795.0,259.6 L797.0,271.2 L797.2,286.0 L799.1,297.6"/>
<path d="M846.0,340.6 L846.8,362.7"/>
<path d="M847.7,360.4 L850.3,360.6 L855.2,358.6 L857.7,358.1 L860.4,358.2"/>
<path d="M881.6,352.3 L895.8,348.7 L901.3,346.6 L904.2,345.9"/>
<path d="M903.9,348.8 L904.6,354.5 L904.4,363.0 L905.1,368.7 L905.3,374.4"/>
<path d="M910.7,382.3 L908.3,380.7 L905.5,379.8 L896.9,381.1 L894.2,382.0"/>
<path d="M902.5,383.9 L903.6,389.4 L903.9,400.7 L904.9,406.2"/>
<path d="M911.3,406.8 L906.1,407.7 L900.8,407.2 L898.2,408.2 L895.6,408.6"/>
<path d="M722.1,267.6 L720.8,250.7 L718.5,233.9 L718.6,231.1"/>
<path d="M697.8,244.2 L698.9,246.9 L699.3,249.6 L699.7,260.7 L701.0,266.0 L703.0,271.2 L703.3,274.0"/>
<path d="M717.3,189.2 L717.1,178.9 L715.9,173.8"/>
<path d="M454.9,227.6 L453.6,241.9 L452.1,247.3 L450.5,249.6 L448.4,251.6 L440.9,255.8 L438.5,257.5"/>
<path d="M387.8,294.2 L385.0,295.1 L379.9,298.1 L377.2,299.3 L366.2,303.1"/>
<path d="M367.3,302.8 L367.9,307.9 L370.1,315.1"/>
<path d="M371.3,313.5 L376.2,311.4 L381.5,311.1 L384.0,310.1"/>
<path d="M386.9,323.6 L385.6,326.0 L383.9,328.1 L381.6,329.5 L371.3,333.2"/>
<path d="M359.2,294.4 L359.2,291.7 L358.5,286.3 L358.7,283.6 L358.0,281.0 L354.1,277.2 L351.2,272.5"/>
<path d="M333.8,264.1 L331.2,263.2 L325.8,264.0 L323.2,263.0 L320.6,262.8"/>
<path d="M295.2,261.1 L293.0,262.4 L291.4,264.6 L289.3,266.0 L284.5,267.8 L282.7,269.6"/>
<path d="M283.7,267.1 L282.4,269.9 L279.7,271.4 L278.2,273.9 L276.2,276.1"/>
<path d="M262.2,267.8 L262.3,270.6 L260.4,276.0 L260.0,278.7 L260.8,287.2 L260.5,290.0 L258.9,295.4 L258.8,298.2"/>
<path d="M255.3,296.5 L255.6,293.6 L255.6,267.7 L256.3,262.0"/>
<path d="M250.9,284.4 L248.7,312.7"/>
<path d="M209.2,347.3 L209.6,350.1 L210.6,352.9 L210.5,355.7 L209.6,358.5 L209.4,361.4 L210.6,366.9"/>
<path d="M210.4,366.3 L212.6,368.0 L215.1,369.2 L219.3,372.9"/>
<path d="M135.3,391.4 L134.4,382.7 L133.7,379.8 L132.2,377.2 L129.9,375.3 L125.8,371.0 L120.6,368.2"/>
<path d="M70.0,345.3 L67.6,344.7 L65.0,345.0 L62.6,343.9 L60.1,343.6 L57.5,344.0 L55.2,342.7"/>
<path d="M54.2,344.1 L52.6,346.6 L51.1,355.2 L49.9,357.8 L46.8,362.7 L45.9,365.4"/>
<path d="M45.9,363.5 L43.3,364.7 L40.4,365.2 L32.6,361.5"/>
<path d="M33.1,364.3 L30.0,368.9 L29.2,374.6 L25.3,378.8 L24.6,381.5"/>
<path d="M30.3,388.6 L25.0,411.6"/>
<path d="M15.2,402.0 L14.0,407.8 L11.4,416.3 L8.9,427.9 L7.2,433.6"/>
<path d="M3.0,435.7 L5.6,424.1 L8.8,403.7 L10.1,397.9"/>
<path d="M70.0,344.5 L73.9,340.3 L75.9,332.0 L79.9,318.6"/>
<path d="M92.5,428.5 L91.6,434.1 L91.8,445.5 L89.4,468.0"/>
<path d="M88.2,484.4 L84.9,492.7 L84.8,495.7 L85.5,501.7 L85.0,507.7 L85.1,510.7"/>
<path d="M85.2,508.4 L84.9,511.4 L83.5,517.1 L83.7,523.1 L82.7,528.9 L82.3,534.8"/>
<path d="M50.5,530.1 L53.1,503.7 L54.0,486.1"/>
<path d="M131.4,462.3 L132.4,459.7 L131.5,457.0 L131.1,454.4 L132.5,451.8 L131.7,449.1"/>
<path d="M162.7,635.4 L162.8,638.3 L161.4,652.8 L161.4,679.0"/>
<path d="M414.9,654.0 L417.9,654.1 L426.8,652.2 L435.7,651.6 L441.6,650.5 L447.6,649.9"/>
<path d="M447.4,515.4 L442.6,517.7 L434.6,518.0 L431.9,517.6 L429.5,516.6 L425.6,513.0"/>
<path d="M420.5,517.0 L417.8,516.6 L407.1,517.7"/>
<path d="M574.0,516.5 L579.9,516.7 L582.7,516.0 L585.4,514.9 L587.6,513.1"/>
<path d="M582.7,508.7 L582.6,505.9 L583.6,500.2 L583.6,497.4 L582.4,488.9 L582.4,486.0 L583.7,477.5 L583.2,471.8"/>
</g>
</svg>